<?xml version="1.0" encoding="UTF-8"?>
<svg id="Capa_1" data-name="Capa 1" xmlns="http://www.w3.org/2000/svg" viewBox="0 0 377.9 377.9">
  <defs>
    <style>
      .cls-1 {
        fill: #e23934;
      }

      .cls-2 {
        fill: #fff5f5;
      }

      .cls-3 {
        fill: #d62121;
      }

      .cls-4 {
        fill: #e02d28;
      }

      .cls-5 {
        fill: #db2e2a;
      }

      .cls-6 {
        fill: #f7003b;
      }
    </style>
  </defs>
  <g>
    <rect class="cls-1" width="377.9" height="377.9"/>
    <path class="cls-5" d="m377.9,0v182.16c-66.13,106.17-222.41,125.66-320.24,103.05-24.57-5.68-44.4-10.26-57.66-18.77v-90.15C31.94,119.25,101.36,49.57,173.74,0h204.16Z"/>
    <path class="cls-3" d="m353.86,0C307.28,95.53,155.43,263.6,18.25,239.03c-3.63-.65-10.35-1.85-18.25-3.92v-121.69C43.25,74.55,107.26,33.12,169.8,0h184.06Z"/>
    <path class="cls-4" d="m175.99,0c-6.47,51.15-87.66,126.68-101.71,139.74-28.08,26.12-53.31,49.59-74.28,52.95V0h175.99Z"/>
  </g>
  <g>
    <path class="cls-2" d="m88.91,332.08h-6.15c-.24-.13-.47-.33-.72-.37-8.19-1.22-13.93-5.78-17.7-12.99-3.51-6.71-4.33-13.99-4.33-21.39-.03-72.31-.06-144.62.07-216.93,0-5.15.73-10.44,2.05-15.42,3.38-12.79,13.3-19.94,25.92-19.08,7.2.49,13.67,3.31,19.85,6.86,63.21,36.26,126.44,72.48,189.59,108.84,4.47,2.57,8.74,5.77,12.4,9.39,10.18,10.05,10.64,23.04,1.7,34.12-4.11,5.1-9.46,8.62-15.06,11.83-60.39,34.63-120.78,69.27-181.16,103.92-8.37,4.81-16.61,9.9-26.45,11.22Z"/>
    <path class="cls-6" d="m80.03,242.71c0-1.29,0-2.58,0-3.87.08-.14.2-.27.23-.42.67-4.03,2.62-7.37,5.69-9.98,7.6-6.46,16.32-7.78,25.74-5.2,2.07.57,4.01,1.58,6.08,2.41,0-.53,0-1,0-1.48,0-27.02,0-54.05,0-81.07,0-.39-.01-.77,0-1.16.1-2.75,1.61-4.56,4.34-4.89,7.38-.88,14.78-1.69,22.17-2.51,8.89-.99,17.77-1.96,26.66-2.94,9.06-1,18.11-2.01,27.17-3.03,2.63-.3,5.26-.67,7.89-1.01.77,0,1.55,0,2.32,0,1.93.52,3.12,1.84,3.87,3.61v102.25c-.08.14-.2.28-.22.43-.66,4.03-2.67,7.3-5.66,10-9.15,8.29-25.1,8.62-34.61.74-8.45-7.01-9.05-18.18-1.13-25.28,7.54-6.75,16.41-8.15,26-5.53,2.08.57,4.04,1.57,6.1,2.38v-54.98c-25.17,2.81-50.26,5.6-75.42,8.4,0,.58,0,1.05,0,1.52,0,23.02-.01,46.03,0,69.05,0,5.37-2.03,9.82-6.06,13.26-6.85,5.86-14.85,7.39-23.53,5.68-5.83-1.15-10.76-3.92-14.42-8.75-1.73-2.28-2.56-4.91-3.21-7.63Z"/>
  </g>
</svg>